<?xml version="1.0" encoding="UTF-8"?>
<svg width="1200pt" height="1200pt" version="1.1" viewBox="0 0 1200 1200" xmlns="http://www.w3.org/2000/svg">
 <path d="m1193.8 847.14c-8.6875-15.926-20.641-30.422-35.137-42.012-4.332-3.6133-9.0469-7.2461-14.113-11.219-3.625-2.5312-6.5273-5.7969-8.3281-9.7812-8.3281-15.215-15.215-31.859-19.559-49.246-5.0625-20.27-9.0469-41.27-10.859-62.652l-2.1719-19.906-1.0938-11.23-0.35938-5.0742v-0.73047c0-8.3164-1.4414-16.656-4.3438-24.613-4.332-10.871-13.031-18.84-23.891-22.453-2.1719-0.73047-4.3438-1.0938-6.5156-1.0938-1.8125 0-3.2539 0-4.7148 0.35938-1.0938 0.35938-2.8906 0.73047-5.0625 1.0938l-7.9688 1.8008-5.4375 1.4531-5.4258 1.4531-8.3281 1.4531-8.6875 2.5312-9.7695 2.1836-8.6992 2.5312-5.0742 1.8125c-2.5312 1.4531-5.0625 2.1719-7.5977 2.8906-1.4531 0.37109-2.543 0.37109-3.6367 0.37109-9.0469-1.8125-15.203-10.141-14.484-19.199 0.35937-6.1562 0.73047-12.672 0.73047-18.828 0-10.141-0.73047-19.922-1.8008-29.699l-0.73047-6.1562c2.1719-0.35938 3.625-1.4531 5.4258-2.8906 8.6992-9.4219 13.754-21.73 13.754-34.754v-2.5312c-0.34766-7.6094-2.8906-15.215-7.2344-21.359-11.953-17.746-28.609-32.594-47.797-42.359l-14.844-7.6094-7.9688-3.625-7.957-2.8906-6.8867-2.9023-7.6094-2.8906-8.3164-3.2539c-3.625-1.0781-7.2461-2.1719-11.23-3.2539-11.23-2.5312-22.453-3.9844-33.312-4.7031-8.6875-0.35938-17.375-0.73047-26.062-0.73047h-0.73047c-13.754 0-27.887 0-42.012-0.35938-3.9844-0.35938-7.5977-0.35938-11.23-0.35938-11.219 0-22.441 0.73047-33.672 1.4531-3.2539 0.35938-6.168 0.35938-9.0586 0.35938-10.859-0.35938-21.73-1.4531-32.23-3.625-8.3164-1.4531-15.938-3.625-23.891-6.5156-5.0742-2.1719-10.859-3.9844-16.668-5.7969-3.9727-1.0938-7.5977-2.5312-10.859-4.3438-3.9727-2.1836-7.957-3.9961-12.301-5.7969-6.1562-2.1719-11.953-5.0625-17.746-8.6992-5.7969-3.2539-12.312-6.875-18.828-10.141-6.5156-3.2656-13.031-6.5156-19.547-10.5-7.2461-3.9844-14.844-7.2461-22.453-9.4219-14.855-4.3438-30.059-6.5156-45.625-6.875h-3.2539c-18.828 0-37.656 2.1719-56.125 6.1562-18.109 3.625-35.844 8.3281-53.23 13.391l-14.844 4.7148-5.7969 1.4531 2.1719-3.2656 5.0625-6.1562 4.3438-5.0625 6.5156-6.875 6.1562-5.7969 8.3281-7.2461 13.402-11.578 11.578-10.5 9.4219-9.7812 11.594-14.844c3.2539-5.4375 5.7852-10.859 8.3281-17.016 2.5312-6.875 3.9844-14.484 4.3438-22.094v-1.8125c0-6.875-1.0938-14.125-2.5312-21 0-0.71875-0.35938-1.0781-1.0938-1.0781h-0.71875c-7.9688 15.215-17.387 30.422-27.516 44.902-5.0625 7.6094-11.219 14.125-18.469 18.828l-5.4258 3.625c3.6133-11.953 5.4258-24.254 5.4258-36.562l0.35938-7.9688-0.71875-10.859-0.73047-6.1562c-0.73047-1.8125-2.5312-3.2656-4.3438-3.2656-2.1719 0-3.9844 1.4531-4.7148 3.2656l-1.4531 6.1562-3.2539 8.3281-3.9844 10.5-2.8906 6.875-5.0625 10.141c-1.8125 4.3438-4.7148 8.3281-8.3281 11.23-5.793 5.0312-14.84 0.6875-14.84-6.9219v-1.0781l3.2656-24.625c0.71875-2.5312 1.0781-5.0625 1.4531-7.6094v-0.35938c0-1.0781-0.73047-1.8125-1.8125-2.1719-0.73047-0.35938-1.0938-0.35938-1.8125-0.35938-1.0938 0-2.5312 0.35938-3.625 1.0781l-11.953 9.7812-9.0469 8.6875-8.3281 8.3281-18.109 20.641c-3.9844 3.625-10.141 1.4531-10.859-3.9844l-1.8125-10.859-1.4531-11.23-0.73047-11.23-0.71875-11.941-0.73047-4.7148c-0.35938-1.0781-1.0781-1.8125-2.1719-1.8125-1.8125 0-3.625 1.0938-4.7031 2.5312-8.6875 11.23-16.297 23.531-22.453 36.938-1.8008 3.9844-4.7031 7.9688-7.5977 11.219-3.625 3.625-9.7812 2.1836-11.23-2.5312-1.4531-4.7031-2.8906-9.0469-4.3438-13.754-1.8008-5.4375-2.1719-9.4219-1.0781-13.402 1.0781-5.4375 1.4531-10.859 1.4531-16.297 0-3.2539 0-6.5156-0.35938-9.7812l-1.4531-10.5c-0.007813-2.8789-2.5391-5.0508-5.4414-5.0508-1.8125 0-3.2539 0.73047-4.3438 2.1719-3.625 4.3438-6.5156 9.0586-9.0469 14.125-5.0742 9.7695-7.6094 20.641-8.3281 31.5l-0.35938 6.5156c-9.7695-10.859-18.109-22.453-24.254-35.484l-1.4531-2.9023-6.5156 37.297-2.5312-5.7969-2.1836-5.4258-3.625-7.9688-6.875-13.395-9.0469-13.754c-1.4531-1.4531-2.9023-2.9023-4.7148-4.3438-1.8164-1.8086-3.9883-2.5391-6.5195-2.5391-5.4375 0-9.7695 4.3438-9.7695 9.7812 0 1.4531 0 2.8906 0.35938 4.3438 0.35937 7.9688 1.8125 16.285 4.7148 23.902l2.8906 8.3164 4.7148 10.141c0.35938 0.35938 0.71875 0.73047 0.71875 1.4531-0.35938 2.5312-2.5312 3.9844-4.7031 3.625l-1.457-0.36328-3.2656-1.0781-2.8906-1.8125-5.4375-3.2539-18.828-15.59-2.5312-2.1719-3.625-2.8906-2.543-2.5312-2.1719-2.543-3.9727-3.9844c0-0.35938-0.35938-0.35938-0.73047-0.71875s-0.71875-0.35938-1.4531-0.35938c-0.73047 0-1.4531 0.35938-1.8125 1.4531-0.35938 1.0742-0.35938 1.8086-0.35938 2.8867 0 1.0938 0 2.1719 0.35938 3.2656 2.1836 8.6875 4.7148 17.375 8.3398 25.344l5.7969 14.844 1.8125 4.7031 0.35938 1.8125v0.35938c0 1.0781-0.73047 1.8125-1.4531 2.5312-1.8008 0.71875-3.6133 0.71875-4.7031-0.35938l-6.5156-3.25-7.25-4.7031-7.2461-4.7188-7.9688-5.0625-12.672-9.7812-15.922-13.762-13.406-13.035c-1.0781-0.73047-1.8008-1.0781-3.2617-1.4492-0.35938 0-0.71875-0.35938-1.0781-0.35938-1.0781 0-2.1719 0.73047-2.8906 1.8125-0.73047 0.73047-1.0781 1.8008-1.0781 2.8906 0 0.71875 0.35938 1.4531 0.35938 1.8125 8.3281 19.188 19.922 36.574 34.031 51.047 6.875 6.8867 13.754 13.402 21.359 19.199 8.6992 6.875 18.109 13.402 27.887 18.828 2.8906 1.8008 5.7852 3.6133 9.0469 5.4375 4.3438 2.8906 8.6875 5.7852 12.672 9.0469 4.3438 3.2539 7.9688 7.2461 11.23 11.23l2.8906 3.9844c-20.641 1.0781-41.641 3.9844-62.281 8.6875-17.016 3.9961-32.953 10.5-47.438 20.281-13.402 9.0469-22.453 23.172-24.625 39.109-0.35547 0.71875-0.35547 1.8008-0.35547 2.8906 0 9.7695 6.1562 18.469 15.215 21.371 1.0781 0.35937 2.1719 0.71875 2.8906 0.71875 2.1719 0 3.9844-0.71875 5.4375-1.8125l1.4531-1.0781c1.8125 7.2461 6.5156 13.031 12.672 16.656 7.2461 3.9844 15.203 6.1562 23.172 6.1562h3.2539c8.6875-0.35937 16.656-1.4531 24.984-2.1719 7.6094-1.0781 15.215-2.1719 22.812-3.625 4.3438-0.73047 8.6992-1.0781 13.402-0.73047 4.7031 0.73047 9.0469 2.9023 12.312 6.5156 2.5312 2.1719 4.3438 5.0625 6.1562 8.3281 3.2539 5.4375 6.5156 10.5 10.141 15.203 9.7812 13.402 22.812 24.625 37.297 32.594 7.9688 4.3438 15.938 8.3281 24.266 11.594 8.3281 3.6133 17.375 6.5039 26.797 8.3164 16.656 3.9844 32.594 6.5156 48.516 9.4219 9.4219 1.4531 19.188 3.9844 28.609 7.6094 7.9688 3.2539 15.562 7.5977 22.453 13.031 8.3281 8.3281 13.391 19.199 13.391 31.141v0.73047l-0.71875 17.375v2.1836c0 10.141 2.5312 19.906 7.2461 28.598 1.0781 2.543 2.1719 4.7148 3.2539 6.8867 0.35938 1.8008 1.0781 3.2539 1.4531 5.0742 1.0781 4.332 1.4531 8.6875 1.4531 13.391 0 2.5312-0.35938 5.4258-0.71875 7.9688-0.73047 6.5039-1.8125 13.391-3.625 20.27-1.0781 6.1562-3.2539 11.594-6.5156 17.016-4.7031 8.3281-10.5 16.656-16.297 24.625l-25.715 35.484-9.7695 13.766-15.574 22.441-14.113 20.281-14.125 20.641-18.828 30.059c-5.7969 10.141-12.672 19.199-20.281 27.875-8.3281 9.4062-15.938 19.188-23.531 28.969-7.6094 9.7695-16.297 18.109-26.062 24.625l-11.953 7.6094-13.391 7.6094-14.484 7.6094-3.2539 2.5312c-0.73047 0-1.0938 0.35938-1.4531 0.73047-1.0781 0.71875-1.8008 1.8008-1.8008 2.8906v1.0938c0.71875 2.5312 2.8906 4.7031 5.4375 5.4258 4.7031 1.4531 9.0469 2.1719 13.754 2.1719h2.1719c15.938-0.71875 28.969-1.4414 42.359-2.5312 9.7695-0.73047 21.359-3.625 31.859-8.6875 3.625-1.4531 6.8867-3.625 10.5-5.7969 3.9844-2.8906 7.9688-6.5156 10.859-10.5 2.1719-3.2539 4.7148-6.1562 7.2461-9.0469 14.484-19.199 28.246-38.746 42-58.668 6.1562-9.4062 14.484-20.281 23.172-30.422 13.766-15.926 26.438-32.23 39.109-48.516 15.215-19.922 31.871-39.469 48.887-57.938 4.3438-4.7148 9.0469-10.141 14.125-15.938 2.9023-3.2539 7.2461-7.6094 11.23-11.219 6.1562-5.7969 10.859-13.043 13.402-21.371 2.5312-7.5977 5.4375-14.484 7.9688-21.359 14.844-34.754 65.543-30.77 74.594 6.1562l2.5312 10.5 1.8125 7.9688 1.8125 10.512 1.0938 5.7852c3.625 15.574 6.875 31.141 9.4219 46.715 0.73047 3.625 1.8008 7.9688 2.5312 12.312 0.73047 3.9727 1.8125 7.5977 3.2656 11.23 4.7031 11.23 10.141 22.078 16.656 32.23 5.0625 7.9688 11.578 14.832 18.828 21l30.047 23.172 18.098 15.574 8.3281 7.957-16.715 6.8672-10.152 4.7148-9.0352 3.9727c-6.5273 2.1836-14.125 4.3438-21.73 6.8867-6.5156 2.1719-10.859 3.9727-15.562 6.1562-5.7969 2.5312-10.859 6.5156-14.844 11.23-1.4531 1.8008-2.5312 3.9844-2.5312 6.1562 0.35938 7.2461 3.2656 14.484 7.9688 19.559 3.625 3.9727 8.6875 6.875 13.754 7.957 6.5156 1.8125 13.031 2.543 19.559 2.543h5.0625c15.938-1.0938 31.141-5.7969 45.266-14.137l34.391-21 3.625-2.5312c15.215 12.301 30.781 23.172 47.074 32.953 10.5 6.1562 21.359 11.219 32.953 15.215 7.2461 2.5312 15.215 4.332 22.812 4.7031l4.7031 0.35938c0.35938-1.8008 0.35938-3.9844 0.35938-5.7852 0-2.8906-0.35938-6.1562-0.71875-9.0586-1.1055-5.4258-2.9023-10.5-5.0742-15.215-1.8125-3.6133-3.9844-7.2344-6.5273-10.5-3.9727-5.4258-8.6875-10.859-13.391-15.926l-5.4258-5.7969-6.5156-6.5039-8.3281-6.5273-7.2461-5.4375-5.7969-4.7031-6.5156-3.625-5.7852-2.8906c9.0586-9.4219 18.828-18.469 28.969-26.797 20.641-17.016 35.844-29.328 51.422-41.641 7.2461-6.1562 19.906-19.559 30.047-34.402 3.9844-5.4258 6.168-12.301 6.5273-19.188l0.34766-5.0742 1.0938-11.941c3.2539-28.246 11.594-55.766 24.254-81.121l2.1836-4.3438c13.391 24.625 38.746 40.559 66.625 41.281h2.543c19.188 0 37.656-5.7969 52.859-17.375l15.562-11.23 12.684-8.6992 13.391-8.3164c1.4531-1.0938 3.2539-1.4531 5.0742-1.4531 7.2461-0.35938 14.125 2.1719 19.547 6.5156 2.1836 1.4531 3.9844 3.2539 5.0742 5.4375 1.8008 2.5312 2.8906 5.0625 4.3438 7.957 1.8008 3.9844 2.8906 8.3281 3.625 12.312 0.34766 3.9844 0.73047 6.875 1.0938 10.141 0.71875 3.9844 1.0781 8.6992 1.8008 13.031 0.73047 7.2461 2.1719 14.137 4.3438 21 1.8008 6.8867 3.9844 13.766 5.7852 20.652 4.3438 17.016 11.23 33.312 20.281 48.168 7.2344 11.578 15.203 22.801 24.254 32.941 3.2539 3.9844 7.6094 7.2461 11.941 10.5l16.309 10.477c11.941 7.9688 25.715 11.953 39.828 11.953h0.35938c5.4258 0 9.7695-3.625 11.219-8.6875 1.0938-3.9766 1.4531-8.3203 1.4531-12.305 0-8.3281-2.1719-16.656-6.1562-24.262zm-434.15-93.781c-3.2539 17.375-9.0586 34.754-17.027 50.699-15.562 30.406-37.656 56.484-64.801 76.754l-3.9961-3.2539c-15.562-13.754-29.688-28.609-42.359-44.891l-13.391-17.027c-5.4375-8.3164-9.7695-17.375-12.672-26.785-3.625-11.594-5.7969-23.184-6.5156-35.125-1.0781-22.812-0.35938-45.996 2.1719-69.168 7.9688 0 15.938 0 23.891 0.73047 6.5156 0.71875 13.043 1.4414 19.547 3.2539 14.855 3.625 30.422 5.7852 45.996 5.7852 14.844 0 29.699-1.8008 44.184-5.4258 9.7695-2.1836 19.188-5.7969 27.875-10.859l0.73047 8.6875c0.34766 6.5273 0.34766 12.312 0.34766 18.469-0.007812 16.285-1.4492 32.223-3.9805 48.156z"/>
</svg>
