<svg xmlns="http://www.w3.org/2000/svg" version="1.1" viewBox="-5.0 -10.0 110.0 135.0">
 <path d="m19.129 72c0.8125 0.37891 1.6953 0.57812 2.5898 0.58984h0.16016c0.14453-0.011719 0.28906-0.011719 0.42969 0 0.23828 0 0.25 0.12891 0.25 0.17969 0.003906 0.39062 0.18359 0.75781 0.48828 0.99609s0.70703 0.32812 1.082 0.23438c0.83203-0.046875 1.6562-0.17578 2.4609-0.37891l1.1406-0.33984c0.88281-0.29688 1.7891-0.51953 2.7109-0.66016h0.37109-0.003906c-0.066406 0.054687-0.14062 0.10156-0.21875 0.14062-1.9922 1.0391-4.0898 1.8594-6.2617 2.4492-1.0312 0.21484-2.0078 0.63281-2.8789 1.2305-0.125 0.09375-0.24219 0.20312-0.34766 0.32031-0.28125 0.25-0.39844 0.63672-0.30078 1 0.078125 0.25 0.30859 0.57031 1 0.71094v-0.003906c0.45703 0.097656 0.92578 0.12891 1.3906 0.089844 0.39844-0.042969 0.79688-0.10938 1.1875-0.19922l0.75-0.14062h0.35156c0.003906 0.03125 0.003906 0.0625 0 0.089844-0.058594 0.11719-0.070313 0.25-0.03125 0.37109 0.039062 0.12109 0.125 0.22266 0.24219 0.28125l0.12109 0.058593h-0.003906c0.16016 0.11328 0.34766 0.18359 0.54297 0.19922 0.33203 0.027344 0.67188 0 1-0.078125l2-0.42969 0.53906-0.12109c-0.054687 0.23438-0.023437 0.47656 0.089844 0.69141 0.1875 0.28125 0.48438 0.46875 0.82031 0.51953 0.79688 0.20312 1.6367 0.16016 2.4102-0.12109 0.75-0.28125 1.5117-0.58984 2.2383-0.87891l1.4805-0.58984c0.26172-0.11328 0.53516-0.20313 0.80859-0.26953-0.12891 0.18359-0.27734 0.35938-0.4375 0.51953-0.050781 0.039062-0.09375 0.085937-0.12891 0.14062l-0.41016 0.39844-0.39844 0.41016h-0.003906c-0.089844 0.09375-0.16797 0.20312-0.23047 0.32031l-0.10156 0.16016h0.003906c-0.082031 0.13672-0.082031 0.30859 0 0.44922 0.0625 0.14844 0.19922 0.25391 0.35938 0.28125l0.51172 0.078125h-0.003906c-0.36719 0.29297-0.54297 0.76953-0.44922 1.2305 0.03125 0.125 0.10938 0.23437 0.22266 0.30078 0.48438 0.23047 1.0508 0.23047 1.5391 0 0.39062-0.14062 0.76172-0.30078 1.1211-0.46094l0.53906-0.23047h0.089844l0.30859-0.12109v0.003906c-0.054687 0.30469 0.039063 0.62109 0.25 0.84766 0.29688 0.29688 0.72656 0.41406 1.1289 0.30859 0.41016-0.082031 0.80859-0.21094 1.1914-0.37891 0.41016-0.19141 0.80859-0.39844 1.1992-0.60156l0.96094-0.59766 0.25-0.078125c0.042969 0.41406 0.28125 0.78516 0.64062 1 0.40234 0.19531 0.875 0.19531 1.2812 0l0.16016-0.070313v4 7.4805l-0.003906-0.003906c-0.070313 0.36719 0.015625 0.74609 0.23828 1.0469s0.5625 0.48828 0.93359 0.52344c0.25 0.054687 0.50391 0.082031 0.76172 0.082031 0.30469 0 0.60938-0.03125 0.91016-0.10156 0.33984-0.035156 0.65625-0.21484 0.85938-0.49219 0.20703-0.27734 0.28516-0.62891 0.21875-0.96484v-5.8984-5.5117c0.32422 0.28125 0.78906 0.33594 1.1758 0.14062 0.38281-0.19531 0.60938-0.60156 0.57422-1.0312-0.003906-0.015625-0.003906-0.035156 0-0.050782 1.0117 0.69922 2.0977 1.2852 3.2383 1.7383 0.42188 0.15625 0.89062 0.10547 1.2734-0.12891 0.21484-0.17188 0.34766-0.42578 0.37109-0.69922 0.023438-0.27344-0.070312-0.54688-0.25391-0.75l-0.39062-0.57031c0.26953-0.13672 0.58594-0.13672 0.85156 0l0.82812 0.35938 0.60156 0.26953c0.76953 0.28125 1.6094 0.3125 2.4023 0.10156 0.15234-0.074219 0.25781-0.21875 0.27734-0.39062v-0.30078l0.80859 0.28906c0.35156 0.12891 0.71094 0.26953 1.0781 0.37891l0.003906 0.003906c0.26953 0.078125 0.55078 0.125 0.83203 0.14062h0.30859c0.21484 0.027343 0.42578-0.089844 0.50781-0.29297 0.21484-0.42969 0.0625-0.95312-0.34766-1.1992l-0.94141-0.75c-0.62891-0.5-1.2891-1-1.9297-1.5508-0.35938-0.30078-0.5-0.51172-0.51172-0.76953v-0.058594h0.0625c0.29688 0.16406 0.57422 0.35547 0.82813 0.57812 0.85937 0.78516 1.8867 1.3672 3 1.7031 0.55078 0.14062 1 0.23047 1.3789-0.070313h0.003906c0.20703-0.20703 0.31641-0.49219 0.29688-0.78125l0.69922 0.23047 0.41016 0.14062h0.10156c0.16797 0.066406 0.34766 0.10156 0.53125 0.10938 0.5 0 0.87109-0.078125 1-0.39062 0.097657-0.23047 0.125-0.48438 0.078126-0.73047l0.33984 0.14062c1.4102 0.66016 2.9297 1.0586 4.4805 1.1797 0.19922 0.015625 0.39453 0.015625 0.58984 0h0.28125c0.14453-0.011719 0.28125-0.085938 0.35938-0.21094 0.070312-0.12891 0.070312-0.28906 0-0.41797l-0.070313-0.21875h0.19141v-0.003906c0.48438 0.14844 1.0117 0.066406 1.4297-0.21875 0.16797-0.125 0.23828-0.34375 0.17188-0.53906-0.19531-0.46875-0.58203-0.83203-1.0625-1l-0.16016-0.078125-0.57031-0.26953v-0.003907c0.19141 0.054688 0.38672 0.097657 0.58203 0.13281 0.59766 0.17188 1.2266-0.15234 1.4297-0.74219 0.039063-0.10938 0.15625-0.17188 0.26953-0.14844 0.25 0 0.48828 0 0.75 0.070312h0.14062c0.74609 0.12891 1.5-0.17187 1.9492-0.78125 0.09375-0.11328 0.12891-0.25781 0.10156-0.39844-0.035156-0.14453-0.13281-0.26562-0.26172-0.33203l-0.17188-0.078125h0.003906c-0.16406-0.097657-0.33203-0.17578-0.51172-0.23047-4.2305-1.2734-8.293-3.0547-12.102-5.3008-0.69141-0.37891-1.3594-0.82031-2-1.2383v-0.003907c0.21875-0.066406 0.41797-0.1875 0.57031-0.35938h0.070313l0.91016 0.30859 0.5 0.17969 0.53125 0.19922c1.1211 0.39062 1.6406 0.26953 2.1289-0.57812l0.91016 0.32031 0.28125 0.10156c0.35156 0.13281 0.71484 0.24609 1.0781 0.33984 0.34375 0.13672 0.72656 0.11719 1.0508-0.050781 0.32812-0.16406 0.56641-0.46484 0.66016-0.82031 0.023438-0.0625 0.050781-0.12891 0.078125-0.1875 0.11328-0.011718 0.22266-0.011718 0.33203 0 0.41016 0.054688 0.82422 0.082032 1.2383 0.078125 0.37109-0.027343 0.70312-0.22656 0.90234-0.53906 0.13281-0.37109-0.003906-0.78516-0.33203-1-0.22656-0.15234-0.48828-0.25391-0.75781-0.28906-1.1953-0.19531-2.3594-0.53125-3.4727-1l-0.19922-0.078125c-0.78906-0.30859-1.5781-0.64062-2.3516-1h-0.078125l0.46094-0.14844v-0.003906c0.17578-0.066407 0.30078-0.22266 0.32031-0.41016 0.015625-0.18359-0.078125-0.35938-0.24219-0.44922l-0.30078-0.17969h0.003906c-0.19531-0.14062-0.40625-0.25-0.63281-0.33203-3.2734-1.2227-6.2773-3.0703-8.8477-5.4414l0.16016 0.050781c0.42188 0.14844 0.85938 0.30078 1.3008 0.42969h-0.003906c0.57422 0.17969 1.1914 0.16406 1.75-0.050781 0.17188-0.03125 0.34375-0.03125 0.51172 0h1.2812c0.19922-0.011719 0.37109-0.14062 0.4375-0.32812 0.17578-0.55469-0.09375-1.1484-0.62891-1.3789l-0.76953-0.37109c-0.32812-0.19141-0.64844-0.37109-1-0.57031-0.13281-0.085938-0.26172-0.17578-0.37891-0.28125l2.4883 1 1 0.41016c0.19141 0.078125 0.39453 0.11328 0.60156 0.10156h0.10938c0.29297 0.011719 0.57812-0.074218 0.82031-0.23828 0.13281-0.10547 0.22266-0.25391 0.25-0.42188 0.66016 0.28516 1.4102 0.3125 2.0898 0.070312 0.16797-0.058593 0.28906-0.21094 0.30859-0.39062v-0.12891c0.64844 0.14062 1.3281 0.26953 2 0.35156v-0.003906c0.46875 0.046874 0.92969-0.11719 1.2617-0.44922 0.13672-0.16406 0.18359-0.39062 0.11719-0.59766-0.125-0.28516-0.37891-0.48828-0.67969-0.5625h-0.12109c-1.8086-0.75-3.6719-1.5-5.4688-2.2305l-4.8594-2c-0.50391-0.22266-0.98047-0.50781-1.418-0.83984h0.26953c0.33984 0.058594 0.69141 0.12109 1.0586 0.14844v0.003906c0.22656 0.007812 0.44922-0.042969 0.65234-0.14062l0.17969-0.058594c0.14844-0.042969 0.26953-0.15234 0.32031-0.30078 0.046875-0.14844 0.019531-0.30859-0.070313-0.42969l0.058594-0.10156c-0.097656-0.19531-0.25-0.35938-0.44141-0.46875-0.44141-0.22656-0.89844-0.42188-1.3672-0.58984-1.2891-0.51562-2.4844-1.2266-3.5508-2.1094 0.39453 0.019531 0.79297 0.019531 1.1875 0 0.37891-0.035156 0.71094-0.26562 0.87109-0.61328 0.050781-0.17578 0.03125-0.36719-0.058594-0.52734 0.54297 0.10547 1.0977 0.15625 1.6484 0.14844 0.24609-0.015626 0.48828-0.078126 0.71094-0.17969l0.23828-0.089844h0.10938c0.17188 0 0.32812-0.10156 0.48828-0.12891l0.76953-0.12109h0.30469c0.15625-0.023437 0.29297-0.125 0.35938-0.26953 0.070313-0.14062 0.070313-0.30078 0-0.44141l-0.078125-0.14844h0.16016c0.41016 0.070313 0.85156 0.14062 1.2891 0.17969 0.35938 0.027343 0.71875-0.015625 1.0586-0.12891 0.38281-0.0625 0.66406-0.39453 0.66406-0.78125 0-0.38672-0.28125-0.71875-0.66406-0.78125-0.20703-0.0625-0.42188-0.10156-0.64062-0.11719h-0.23047c-1.6016-0.26953-3.1836-0.66016-4.7266-1.1719l0.19141-0.16016c0.058593-0.058594 0.16016-0.14844 0.48828 0 0.35156 0.12891 0.71484 0.23828 1.0781 0.33203l0.33984 0.10156v-0.003907c0.61328 0.17578 1.2734-0.042969 1.6602-0.55078 0.10156-0.10547 0.14453-0.25391 0.12109-0.39844-0.027344-0.14453-0.12109-0.26953-0.25-0.33984l-0.42969-0.21875c-0.33984-0.17969-0.69922-0.37109-1.0703-0.53906v-0.003906c-2.7617-1.2422-5.4336-2.6719-8-4.2773h0.10938c0.64844 0.25391 1.3789 0.21875 2-0.10156 0.11719-0.027344 0.24219-0.027344 0.35938 0 0.42969 0.12891 0.89062 0.12891 1.3203 0 0.28125-0.14453 0.48047-0.41797 0.53125-0.73047h0.33984c0.60547 0.039063 1.1914-0.20312 1.5977-0.64844 0.09375-0.10156 0.12891-0.23828 0.10156-0.37109-0.015625-0.13281-0.09375-0.25-0.21094-0.32031l-0.12109-0.10156 0.003907 0.003906c-0.1875-0.16406-0.40625-0.27734-0.64062-0.34375-1.1523-0.26172-2.2773-0.64453-3.3516-1.1367-0.35156-0.14844-0.71094-0.30078-1.0781-0.44141-0.96094-0.35547-1.8594-0.86328-2.6602-1.5 0.64062 0.14844 1.3008 0.30859 1.9219 0.5h-0.003906c0.76562 0.38281 1.6797 0.28906 2.3516-0.23828 0.23828 0.015625 0.47266 0.042969 0.71094 0.089843 0.83203 0.24219 1.7266 0.15234 2.5-0.25 0.10938-0.070312 0.19141-0.18359 0.21875-0.3125 0.027343-0.12891 0-0.26172-0.082031-0.36719-0.37891-0.44922-0.90625-0.75-1.4883-0.85156l-0.51953-0.17969c-1.3984-0.60156-2.8516-1.1992-4.2617-1.7695h1.8984 0.003906c0.22266-0.003906 0.41406-0.16406 0.45703-0.38281 0.16016-0.80078-0.58984-1-0.91016-1.1211v0.003906c-1.4531-0.39844-2.8359-1.0195-4.0977-1.8398l0.60938 0.070312c0.33203 0.046876 0.66797 0.046876 1 0l1.3906-0.28906 0.91016-0.21094c0.17578-0.03125 0.31641-0.16797 0.35938-0.33984 0.050781-0.17578-0.007812-0.36719-0.14844-0.48047l-0.089843-0.078125v-0.003906c-0.13281-0.15625-0.29688-0.28125-0.48047-0.37109l-1.9922-0.82812c-0.69922-0.28906-1.4297-0.60156-2.1289-0.92188-0.21094-0.097656-0.41406-0.21094-0.60938-0.33984h0.21875c0.67188 0.054688 1.3438 0.007813 2-0.13672 0.17969-0.042968 0.31641-0.18359 0.35156-0.36328 0.039062-0.17578-0.027344-0.35547-0.17188-0.46875l-0.21875-0.17969c-0.13281-0.11719-0.27734-0.22266-0.42969-0.30859l-1.4688-0.80078c-0.60938-0.32812-1.2383-0.66016-1.8398-1l-0.19141-0.12109 0.26953-0.19922c0.10547-0.074218 0.17969-0.1875 0.19922-0.31641s-0.011719-0.25781-0.089843-0.36328c-0.96484-1.3906-1.5742-3-1.7695-4.6797-0.089844-0.44922-0.17969-0.92188-0.28906-1.3789-0.019532-0.23047-0.20312-0.40625-0.42969-0.42188-1.0586-0.12109-1.2812 0.41016-1.3594 0.87891 0 0.28906-0.089843 0.57031-0.12891 0.85156h-0.003906c-0.0625 0.55078-0.16016 1.0938-0.30078 1.6289-0.12891 0.38281-0.30078 0.74609-0.50781 1.0898-0.10156 0.17969-0.19922 0.35938-0.28906 0.53906l-0.19141 0.35156-0.10938 0.17969c-0.050781 0.11719-0.050781 0.25391 0 0.37109 0.03125 0.12109 0.11328 0.22266 0.23047 0.28125l0.39844 0.21094v-0.003906c-0.21484 0.29297-0.48438 0.54297-0.78906 0.74219-0.19922 0.16016-0.42188 0.32031-0.60938 0.5-0.14453 0.14453-0.18359 0.36328-0.089844 0.55078 0.042969 0.078125 0.074219 0.16797 0.089844 0.25781 0 0-0.10156 0.12109-0.57812 0.28906l-0.51172 0.17188c-0.26172 0.074219-0.51953 0.16016-0.76953 0.25781-0.22656 0.09375-0.44141 0.20703-0.64062 0.33984l-0.23047 0.14062c-0.12109 0.074219-0.20312 0.19141-0.23047 0.33203-0.027343 0.13281 0.011719 0.27344 0.10156 0.37891l0.10938 0.12891c0.082031 0.09375 0.19531 0.15234 0.32031 0.16016l1.6602 0.16016-0.23828 0.14063h-0.003907c-0.16797 0.10156-0.25781 0.29687-0.23047 0.49219 0.035157 0.19141 0.1875 0.34375 0.38281 0.37891h0.26953c-1.2695 0.96484-2.6758 1.7344-4.1719 2.2891l-0.25 0.10938c-0.16016 0.070312-0.27344 0.22656-0.28906 0.40234-0.011719 0.16797 0.066406 0.33203 0.21094 0.42969 0.52344 0.33594 1.125 0.53516 1.75 0.57812l-2.3789 1-0.39062 0.14844c-0.23047 0.089844-0.48047 0.19141-0.71094 0.30078-0.17969 0.097656-0.31641 0.25781-0.38281 0.45312-0.070313 0.15234-0.070313 0.32422 0 0.47656 0.18359 0.26953 0.49609 0.42188 0.82031 0.40234 0.30078 0 0.58984-0.058594 0.89844-0.10156h0.070313c0.44922 0.66016 1.3711 0.51172 1.6914 0.44922 0.125-0.011719 0.25-0.011719 0.37109 0-1.3516 0.88672-2.8203 1.5859-4.3594 2.082h-0.10156c-0.60156 0.17188-1.3594 0.39063-1.6094 1.0898-0.078125 0.20703-0.003906 0.4375 0.17969 0.55859 0.48438 0.28516 1.0547 0.375 1.6016 0.26172h0.19922c0.46875 0 0.57812 0 0.71094 0.14844 0.44531 0.35938 1.0117 0.52734 1.5781 0.47266 0.52734-0.042968 1.0469-0.125 1.5625-0.24219l0.51172-0.10156-0.003906 0.003907c-1.0977 1.043-2.3359 1.9258-3.6797 2.6289l-0.28906 0.17188-0.89062 0.57031-0.41016 0.26953v-0.003906c-0.15625 0.10156-0.24219 0.27734-0.21875 0.46094 0.027343 0.17969 0.14844 0.32812 0.32031 0.39062l0.19922 0.070312-3.9102 1.4883c-0.30859 0.12109-0.62891 0.23047-0.94141 0.32812-0.30859 0.10156-0.78906 0.26953-1.1797 0.42969v0.003906c-0.20312 0.089844-0.38672 0.22266-0.53906 0.39063l-0.14844 0.14062c-0.11719 0.10156-0.17578 0.25781-0.16016 0.41016 0.019532 0.15625 0.10938 0.29297 0.25 0.36719 0.73047 0.39453 1.5703 0.53125 2.3867 0.39062l1.0703-0.17188h0.19141v0.003906c-0.078125 0.14844-0.11328 0.32031-0.10156 0.48828 0.015624 0.17969 0.13281 0.33594 0.30078 0.39844 0.625 0.28906 1.3281 0.36328 2 0.21094 0.37109-0.10156 0.44141 0 0.53906 0.078125v0.003906c0.47656 0.48047 1.1758 0.67188 1.832 0.5l0.32813-0.058594v-0.003906c-1.5859 1.2617-3.4297 2.1641-5.3984 2.6406-0.19531 0.058594-0.33203 0.23828-0.33984 0.44141-0.042968 0.41406 0.21875 0.80078 0.62109 0.91016-1.6641 0.76172-3.3867 1.3945-5.1523 1.8906-0.26172 0.0625-0.51562 0.16016-0.75 0.29688-0.22266 0.14844-0.39453 0.36719-0.48047 0.62109-0.027344 0.14062 0 0.28906 0.082031 0.41016 0.24219 0.30469 0.60938 0.48828 1 0.49219 1-0.050781 1.7891-0.12109 2.5312-0.21875h0.17969c0.41016-0.058594 0.48047-0.050781 0.60156 0.089844 0.12109 0.14062 0.26953 0.30859 1.1211 0.21094h0.17969c0.23047 0.62109 0.94141 0.58984 1.1719 0.57812h0.48047 0.87891l-0.003906-0.003906c-0.72656 0.48438-1.5039 0.89453-2.3125 1.2227-2.1016 0.93359-4.2969 1.6445-6.5469 2.1211-0.60156 0.13672-1.1914 0.32422-1.7617 0.55859l-0.19141 0.070312c-0.42188 0.13281-0.67578 0.5625-0.58984 1 0.19922 0.34375 0.55469 0.56641 0.95312 0.58984h0.17969c0.76172 0.070313 1.5312 0.097656 2.2969 0.089844 0.30859 0 0.62109 0 0.92969-0.058594-0.125 0.070313-0.23828 0.16016-0.33984 0.26953-0.16016 0.17969-0.16016 0.45703 0 0.63672 0.33203 0.35938 0.80469 0.54688 1.293 0.52344-0.085938 0.14453-0.085938 0.32422 0 0.46875l0.10156 0.14844h-0.003906c0.074219 0.12109 0.19922 0.20312 0.33984 0.21094h0.22266c0.20703 0.042968 0.41797 0.0625 0.62891 0.058593 0.82031 0 1.5391-0.089843 2.2188-0.16016h0.082032c0.30469-0.074219 0.62891-0.046875 0.91797 0.082031 0.21094 0.10156 0.45313 0.12891 0.67969 0.070313h0.60156v0.050781c-0.53125 0.79688-1.2734 1.4375-2.1406 1.8477-2.1602 1.1914-4.3906 2.4102-6.6992 3.5391v0.003906c-1.5977 0.79297-3.2734 1.418-5 1.8594-0.87891 0.16016-1.6797 0.60938-2.2695 1.2773-0.10156 0.125-0.13281 0.29297-0.082032 0.44531 0.050782 0.15234 0.17578 0.26562 0.33203 0.30469l0.30859 0.089844c0.21484 0.074218 0.4375 0.12891 0.66016 0.16016h0.60156c0.20312-0.015625 0.40625-0.015625 0.60938 0 0.31641 0.039062 0.625 0.13281 0.91016 0.28125 0.70312 0.72266 1.7695 0.95312 2.7109 0.58984 0.55859-0.17578 1.1094-0.38281 1.6484-0.62109-0.078125 0.19531-0.078125 0.41406 0 0.61328 0.10156 0.23828 0.37109 0.53906 1.0703 0.58984 0.42578 0.015625 0.85156-0.015625 1.2695-0.10156 0.44922-0.078125 0.89844-0.17969 1.3281-0.28125l0.78906-0.17969h0.003906c0.007812 0.12891 0.070312 0.25 0.16797 0.33203 0.078126 0.070312 0.16797 0.12891 0.26172 0.17969 0.37891 0.16406 0.79688 0.23437 1.2109 0.19922l-1.4102 0.64062c-1.2305 0.55859-2.5117 1.1289-3.7695 1.6719l-0.003906-0.003906c-1.8008 0.76562-3.6836 1.3359-5.6094 1.6914-1.2383 0.23828-2.4492 0.57812-3.6211 0.92188-0.58984 0.16016-0.69922 0.5-0.71875 0.69141-0.019531 0.1875 0.13281 0.65625 0.75 0.97656z"/>
<text x="0.0" y="117.5" font-size="5.0" font-weight="bold" font-family="Arbeit Regular, Helvetica, Arial-Unicode, Arial, Sans-serif" fill="#000000">Created by Kim Sun Young</text><text x="0.0" y="122.5" font-size="5.0" font-weight="bold" font-family="Arbeit Regular, Helvetica, Arial-Unicode, Arial, Sans-serif" fill="#000000">from Noun Project</text></svg>